<?xml version="1.0" standalone="no"?>
<!DOCTYPE svg PUBLIC "-//W3C//DTD SVG 20010904//EN"
 "http://www.w3.org/TR/2001/REC-SVG-20010904/DTD/svg10.dtd">
<svg version="1.0" xmlns="http://www.w3.org/2000/svg"
 width="183.000000pt" height="256.000000pt" viewBox="0 0 183.000000 256.000000"
 preserveAspectRatio="xMidYMid meet">

<g transform="translate(0.000000,256.000000) scale(0.100000,-0.100000)"
fill="#000000" stroke="none">
<path d="M1166 2528 c-19 -19 -38 -48 -41 -64 -4 -16 -11 -38 -16 -50 -8 -15
-6 -32 6 -62 9 -23 15 -46 13 -51 -1 -5 -55 -36 -117 -68 -113 -57 -115 -59
-128 -103 -22 -75 -76 -332 -78 -375 -1 -22 -3 -51 -4 -65 -1 -21 -27 1 -184
158 -100 100 -186 182 -190 182 -4 0 -7 -227 -7 -505 0 -278 3 -505 8 -505 4
0 54 47 112 105 58 58 108 105 112 105 3 0 63 -108 133 -240 70 -132 130 -242
135 -245 10 -6 160 72 160 82 0 4 -15 34 -34 67 -76 137 -206 387 -206 396 0
6 41 10 98 10 l97 0 32 -62 c37 -76 41 -92 48 -233 3 -60 10 -139 15 -175 5
-36 12 -138 14 -228 4 -124 9 -168 21 -184 8 -13 15 -30 15 -40 0 -10 10 -28
21 -39 19 -19 30 -21 86 -16 82 6 102 22 79 64 -39 70 -54 128 -45 173 13 67
-10 422 -27 416 -19 -7 -21 0 -28 99 -6 85 -6 88 8 57 8 -18 18 -49 22 -70 7
-37 7 -37 15 -9 4 15 10 62 14 105 7 73 17 102 36 102 9 0 52 -79 64 -120 4
-14 39 -92 77 -173 l69 -148 9 -167 c6 -107 17 -194 30 -242 11 -41 20 -94 20
-116 0 -23 11 -70 24 -105 18 -51 22 -77 18 -126 l-4 -63 76 0 c73 0 76 1 82
26 4 14 1 51 -6 83 -7 32 -10 84 -8 117 3 32 0 185 -4 339 -9 252 -11 283 -29
307 -10 15 -19 33 -19 41 0 8 -9 22 -21 33 -29 26 -52 73 -46 95 5 19 -39 160
-68 216 -9 18 -14 37 -10 42 8 14 -24 107 -41 122 -8 6 -11 15 -8 21 3 5 0 15
-6 23 -10 12 -9 15 5 15 12 0 15 5 10 18 -18 43 -16 51 23 86 63 57 65 114 11
455 -18 111 -32 128 -158 191 -111 54 -129 73 -98 99 10 7 17 7 24 0 8 -8 14
-6 22 8 7 14 6 39 -4 89 -20 94 -50 124 -133 131 -60 6 -62 5 -96 -29z m187
-283 c-3 -9 -8 -14 -10 -11 -3 3 -2 9 2 15 9 16 15 13 8 -4z m-88 -34 c3 -5 1
-12 -5 -16 -5 -3 -10 1 -10 9 0 18 6 21 15 7z m-285 -443 c0 -19 -2 -20 -10
-8 -13 19 -13 30 0 30 6 0 10 -10 10 -22z m13 -55 c6 -32 3 -38 -12 -28 -13 8
-15 55 -2 55 5 0 11 -12 14 -27z m157 -93 c6 -11 9 -20 7 -20 -2 0 -14 9 -27
20 -18 16 -19 20 -7 20 9 0 21 -9 27 -20z m-41 -31 c22 -30 22 -30 2 -19 -12
6 -21 15 -21 20 0 6 -7 10 -16 10 -8 0 -12 5 -9 10 10 16 20 12 44 -21z m215
9 c20 -28 20 -59 1 -84 -14 -19 -14 -19 -15 2 0 12 -9 33 -20 47 -23 29 -25
43 -7 50 21 9 25 8 41 -15z m-369 -78 c10 -11 16 -20 13 -20 -3 0 -13 9 -23
20 -10 11 -16 20 -13 20 3 0 13 -9 23 -20z m350 -169 c6 -23 13 -40 16 -37 3
3 3 -11 1 -30 l-4 -35 -23 31 c-16 22 -23 45 -23 76 0 57 19 54 33 -5z m32 -3
c-3 -8 -6 -5 -6 6 -1 11 2 17 5 13 3 -3 4 -12 1 -19z"/>
<path d="M1301 1004 c0 -11 3 -14 6 -6 3 7 2 16 -1 19 -3 4 -6 -2 -5 -13z"/>
</g>
</svg>
